<svg width="15" height="15" viewBox="0 0 15 15" fill="none" xmlns="http://www.w3.org/2000/svg">
<path d="M2.09573 15C1.48771 15 0.983182 14.8483 0.582147 14.545C0.194049 14.2308 0 13.8353 0 13.3586C0 12.9144 0.200517 12.4648 0.601552 12.0098L4.63777 7.45937L0.756792 3.08776C0.329884 2.61105 0.11643 2.14518 0.11643 1.69014C0.11643 1.2026 0.316947 0.801733 0.717982 0.487541C1.13195 0.162514 1.64295 0 2.25097 0C2.72962 0 3.12419 0.0866739 3.43467 0.260022C3.74515 0.422535 4.07503 0.731311 4.42432 1.18635L7.56792 5.11918H7.72316L10.7503 1.18635C11.0737 0.742145 11.3907 0.433369 11.7012 0.260022C12.0246 0.0866739 12.4191 0 12.8849 0C13.5058 0 14.0104 0.157096 14.3984 0.471289C14.7995 0.785482 15 1.18093 15 1.65764C15 2.09101 14.793 2.54063 14.379 3.0065L10.3622 7.50813L14.3596 11.9772C14.7736 12.4323 14.9806 12.8819 14.9806 13.3261C14.9806 13.8245 14.7801 14.2308 14.379 14.545C13.978 14.8483 13.4605 15 12.8266 15C12.3609 15 11.9664 14.9133 11.643 14.74C11.3325 14.5666 11.0091 14.2579 10.6727 13.8137L7.56792 9.86457H7.43208L4.26908 13.8137C3.90686 14.2687 3.5705 14.5829 3.26003 14.7562C2.94955 14.9187 2.56145 15 2.09573 15Z" fill="black"/>
</svg>
